<?xml version="1.0" encoding="utf-8"?>
<!-- Generator: Adobe Illustrator 16.0.0, SVG Export Plug-In . SVG Version: 6.00 Build 0)  -->
<!DOCTYPE svg PUBLIC "-//W3C//DTD SVG 1.1//EN" "http://www.w3.org/Graphics/SVG/1.1/DTD/svg11.dtd">
<svg version="1.1" id="Layer_1" xmlns="http://www.w3.org/2000/svg" xmlns:xlink="http://www.w3.org/1999/xlink" x="0px" y="0px"
	 width="800px" height="400px" viewBox="0 0 800 400" enable-background="new 0 0 800 400" xml:space="preserve">
<path d="M494.098,263.351c-15.684-48.605-65.129-77.006-115.758-65.235c-34.243,8.394-60.928,33.917-70.807,67.2
	c-0.12-0.108-0.236-0.222-0.355-0.331c-0.199,0.884-0.425,1.76-0.659,2.635c-0.206,1.013-0.485,2.012-0.832,2.997
	c-0.117,0.41-0.234,0.821-0.349,1.232c0.582,0.514,1.162,1.03,1.757,1.53c0.135,0.125,0.256,0.25,0.41,0.353
	c25.446,21.251,58.214,34.076,93.952,34.076c36.281,0,69.5-13.333,95.028-35.352C495.561,269.442,494.699,266.441,494.098,263.351z"
	/>
<path d="M401.456,48.538c-40.573,0-72.352,31.475-72.352,71.658v90.816c0,1.77,1.434,3.199,3.2,3.199c1.766,0,3.2-1.43,3.2-3.199
	v-90.816c0-36.595,28.97-65.258,65.952-65.258c36.602,0,65.271,28.663,65.271,65.258v90.816c0,1.77,1.434,3.199,3.2,3.199
	c1.77,0,3.199-1.43,3.199-3.199v-90.816C473.126,80.682,440.976,48.538,401.456,48.538z"/>
<path d="M447.238,104.614c-0.058-0.019-0.115-0.013-0.173-0.029c-0.319-0.089-0.643-0.176-1.001-0.163
	c-0.513,0.019-1.021,0.026-1.533,0.026c-21.223,0-39.837-13.533-45.594-33.351c-0.028-0.099-0.103-0.173-0.141-0.269
	c-0.08-0.202-0.18-0.387-0.301-0.573c-0.112-0.173-0.23-0.326-0.371-0.467c-0.138-0.144-0.288-0.266-0.458-0.381
	c-0.186-0.128-0.371-0.234-0.576-0.323c-0.093-0.039-0.159-0.109-0.256-0.141c-0.096-0.032-0.195-0.013-0.291-0.035
	c-0.208-0.048-0.413-0.067-0.627-0.07c-0.237-0.006-0.461,0.013-0.688,0.061c-0.086,0.019-0.172-0.003-0.259,0.022
	c-0.086,0.026-0.147,0.086-0.23,0.122c-0.23,0.086-0.438,0.195-0.64,0.333c-0.154,0.103-0.291,0.208-0.422,0.333
	c-0.153,0.15-0.285,0.31-0.406,0.489c-0.122,0.176-0.218,0.349-0.304,0.547c-0.042,0.096-0.118,0.167-0.15,0.269
	c-5.28,16.524-19.062,28.812-35.961,32.064c-0.067,0.013-0.119,0.061-0.186,0.073c-0.205,0.055-0.387,0.147-0.576,0.237
	c-0.192,0.09-0.381,0.176-0.547,0.301c-0.147,0.109-0.262,0.25-0.39,0.387c-0.16,0.173-0.313,0.336-0.429,0.538
	c-0.032,0.055-0.086,0.086-0.115,0.144c-13.415,26.07-3.299,57.114,23.091,70.701c7.405,3.594,15.245,5.293,22.973,5.293
	c19.623,0,38.516-10.97,47.623-29.734c7.341-13.926,7.625-30.192,0.8-44.646C448.762,105.542,448.1,104.909,447.238,104.614z"/>
<text transform="matrix(1 0 0 1 240 368)" font-family="'HelveticaNeue-Bold'" font-size="16">Created by Lluisa Iborra</text>
<text transform="matrix(1 0 0 1 240 384)" font-family="'HelveticaNeue-Bold'" font-size="16">from the Noun Project</text>
</svg>
