<?xml version="1.0" encoding="utf-8"?>
<!-- Generator: Adobe Illustrator 16.0.0, SVG Export Plug-In . SVG Version: 6.00 Build 0)  -->
<!DOCTYPE svg PUBLIC "-//W3C//DTD SVG 1.1//EN" "http://www.w3.org/Graphics/SVG/1.1/DTD/svg11.dtd">
<svg version="1.1" id="Layer_1" xmlns="http://www.w3.org/2000/svg" xmlns:xlink="http://www.w3.org/1999/xlink" x="0px" y="0px"
	 width="320px" height="320px" viewBox="240 0 320 320" enable-background="new 240 0 320 320" xml:space="preserve">
<g>
	<g>
		<path fill="#FFFFFF" d="M400,0c-88,0-160,72-160,160s72,160,160,160s160-72,160-160S488,0,400,0z M400,300c-77,0-140-63-140-140
			S323,20,400,20s140,63,140,140S477,300,400,300z"/>
		<path fill="#FFFFFF" d="M471,150H358l39-32c4-4,5-10,1-14s-10-5-14-1l-61,50c-2,1-3,4-3,7s1,6,4,8l61,50c2,2,4,2,6,2c3,0,6-1,8-4
			c4-4,3-11-1-14l-40-32h113c6,0,10-4,10-10S476,150,471,150z"/>
	</g>
</g>
<text transform="matrix(1 0 0 1 240 470)" font-family="'HelveticaNeue-Bold'" font-size="50">Created by ibnu nasikin hasanah</text>
<text transform="matrix(1 0 0 1 240 520)" font-family="'HelveticaNeue-Bold'" font-size="50">from the Noun Project</text>
</svg>
