<?xml version="1.0" encoding="utf-8"?>
<!-- Generator: Adobe Illustrator 16.0.0, SVG Export Plug-In . SVG Version: 6.00 Build 0)  -->
<!DOCTYPE svg PUBLIC "-//W3C//DTD SVG 1.1//EN" "http://www.w3.org/Graphics/SVG/1.1/DTD/svg11.dtd">
<svg version="1.1" id="Layer_1" xmlns="http://www.w3.org/2000/svg" xmlns:xlink="http://www.w3.org/1999/xlink" x="0px" y="0px"
	 width="331px" height="297px" viewBox="233.5 24.5 331 297" enable-background="new 233.5 24.5 331 297" xml:space="preserve">
<g>
	<g>
		<g>
			<path d="M439.93,99.105h-79.775v66.07l36.488,24.635l43.34-27.058L439.93,99.105z M414.815,149.232h-28.871
				c-2.002,0-3.627-1.63-3.627-3.64c0-2.01,1.625-3.64,3.627-3.64h28.871c2.002,0,3.627,1.63,3.627,3.64
				C418.442,147.603,416.82,149.232,414.815,149.232z M425.532,124.933H375.23c-2.002,0-3.627-1.63-3.627-3.64
				c0-2.01,1.625-3.64,3.627-3.64h50.302c2.003,0,3.628,1.63,3.628,3.64C429.16,123.303,427.537,124.933,425.532,124.933z"/>
			<path d="M352.9,160.275V95.467c0-2.01,1.625-3.64,3.627-3.64h87.027c2.003,0,3.628,1.627,3.628,3.635l0.053,62.765l49.319-30.79
				c-13.252-11.47-70.285-59.805-96.092-81.652c-34.78,29.145-83.463,70.047-96.623,81.37L352.9,160.275z"/>
			<path d="M432.295,207.897c-1.588-1.226-1.885-3.51-0.662-5.103c1.223-1.592,3.505-1.887,5.087-0.665l63.772,49.229
				c0.678-1.188,1.098-2.524,1.098-3.969V135.453c0-0.865-0.145-1.65-0.37-2.353l-102.737,64.135
				c-0.298,0.185-0.617,0.323-0.947,0.415c-0.095,0.028-0.195,0.022-0.295,0.04c-0.226,0.042-0.45,0.095-0.678,0.095
				c-0.013,0-0.022-0.005-0.035-0.005c-0.21-0.002-0.417-0.055-0.625-0.092c-0.135-0.025-0.272-0.025-0.405-0.065
				c-0.335-0.103-0.66-0.255-0.962-0.458l-95.593-64.542c-0.32,0.817-0.532,1.76-0.532,2.83v111.938
				c0,1.715,0.545,3.307,1.475,4.635l64.633-49.896c1.585-1.226,3.865-0.93,5.087,0.665c1.223,1.593,0.925,3.877-0.663,5.103
				l-61.96,47.83c0.055,0,0.105,0.015,0.158,0.015h185.72c0.43,0,0.842-0.064,1.257-0.122L432.295,207.897z"/>
		</g>
	</g>
</g>
</svg>
