<?xml version="1.0" encoding="utf-8"?>
<!-- Generator: Adobe Illustrator 16.0.0, SVG Export Plug-In . SVG Version: 6.00 Build 0)  -->
<!DOCTYPE svg PUBLIC "-//W3C//DTD SVG 1.1//EN" "http://www.w3.org/Graphics/SVG/1.1/DTD/svg11.dtd">
<svg version="1.1" id="Layer_1" xmlns="http://www.w3.org/2000/svg" xmlns:xlink="http://www.w3.org/1999/xlink" x="0px" y="0px"
	 width="249px" height="403.5px" viewBox="275.5 0 249 403.5" enable-background="new 275.5 0 249 403.5" xml:space="preserve">
<g>
	<defs>
		<rect id="SVGID_1_" x="240" width="320" height="320"/>
	</defs>
	<clipPath id="SVGID_2_">
		<use xlink:href="#SVGID_1_"  overflow="visible"/>
	</clipPath>
	<g clip-path="url(#SVGID_2_)">
		<path fill="none" d="M251.59,11.969v186.423c0.358-0.456,0.807-0.87,1.386-1.209c2.126-1.246,5.771-0.715,6.841,1.794
			c2.121,4.976,5.862,8.835,9.218,12.988c1.711,2.117,2.078,4.992,0,7.07c-1.774,1.774-5.355,2.123-7.071,0
			c-3.658-4.525-7.871-8.853-10.374-14.164v104.798h297.701v-297.7H251.59z"/>
		<path fill="none" d="M330.331,159.496h137.701v77.48H330.331V159.496z"/>
		<path d="M395.086,189.48c1.26,0.378,2.268,0.63,3.402,0.63s2.142-0.252,3.275-0.63l64.504-29.354
			c0.504-0.252,1.008-0.378,1.512-0.63c0,14.362,0.126,42.582,0.126,43.213c0,19.275-29.858,34.016-68.787,34.016
			c-39.055,0-68.788-14.74-68.788-34.016c0-0.631,0.126-28.599,0.126-43.213L395.086,189.48z"/>
		<path fill="none" d="M290.142,83.275h217.827v101.417H290.142V83.275z"/>
		<path d="M402.394,128.63c-1.764-0.252-3.149,0-4.661,0.63s-2.646,1.512-3.528,2.897c-0.882,1.26-1.512,2.52-1.764,4.032
			c-0.252,1.764,0,3.149,0.63,4.662c0.63,1.26,1.512,2.52,2.898,3.401c1.26,0.882,2.646,1.512,4.157,1.512l68.283,7.811
			l-68.157,30.74c-0.504,0.126-0.882,0.252-1.26,0.252c-0.504,0-0.882-0.126-1.386-0.252l-105.449-47.622
			c-0.126-0.126-0.252-0.126-0.378-0.126c-0.378-0.378-0.756-0.756-1.134-1.26c-0.252-0.378-0.378-0.882-0.378-1.512
			c0-0.504,0.126-1.008,0.378-1.512c0.378-0.504,0.756-0.882,1.134-1.134c0.126-0.126,0.252-0.126,0.378-0.126l105.449-47.496
			c0.504-0.126,0.882-0.252,1.386-0.252c0.378,0,0.756,0.126,1.26,0.252l105.701,47.496c0.126,0,0.252,0,0.378,0.126
			c0.378,0.252,0.756,0.63,1.134,1.134c0.252,0.504,0.378,1.008,0.378,1.512c0,0.63-0.126,1.134-0.378,1.512
			c-0.378,0.504-0.756,0.882-1.134,1.26c-0.126,0-0.252,0-0.378,0.126l-6.804,3.024L402.394,128.63z"/>
		<path fill="none" d="M396.851,132.283H497.89v82.52H396.851V132.283z"/>
		<path d="M492.851,147.149v43.465l4.409,8.441c0.252,0.63,0.378,1.26,0.378,2.015c0,0.756-0.126,1.26-0.378,1.891l-4.661,9.196
			c-0.126,0.126-0.126,0.126-0.126,0.253c-0.504,0.629-1.008,1.133-1.638,1.512c-0.63,0.377-1.512,0.629-2.268,0.629
			c-0.757,0-1.387-0.252-2.143-0.629c-0.63-0.379-1.26-0.883-1.764-1.512c0-0.127,0-0.253-0.126-0.379l-4.409-9.07
			c-0.378-0.631-0.504-1.135-0.504-1.891c0-0.755,0.126-1.385,0.504-2.015l3.779-7.559v-40.693l-82.897-9.575
			c-0.756,0-1.512-0.252-2.142-0.756s-1.26-1.134-1.512-1.89c-0.378-0.756-0.504-1.386-0.378-2.268
			c0.126-0.756,0.378-1.512,0.882-2.142c0.63-0.63,1.134-1.008,1.89-1.512c0.756-0.378,1.512-0.504,2.394-0.378l86.804,10.079
			c0.756,0,1.386,0.252,2.142,0.756c0.63,0.504,1.008,1.008,1.386,1.89c0.252,0.63,0.378,1.26,0.378,1.89V147.149z"/>
	</g>
</g>
<g>
	<text transform="matrix(1 0 0 1 240 321.8896)" font-family="'HelveticaNeue-Bold'" font-size="0.6299">Created by Erik Arndt</text>
	<text transform="matrix(1 0 0 1 240 322.5195)" font-family="'HelveticaNeue-Bold'" font-size="0.6299">from the Noun Project</text>
</g>
</svg>
